HIERARCHY
ROOT Hips
{
	OFFSET 0.00000 0.00000 0.00000
	CHANNELS 6 Xposition Yposition Zposition Zrotation Yrotation Xrotation 
	JOINT RightUpLegDummy
	{
		OFFSET 0 0 0
		CHANNELS 3 Zrotation Yrotation Xrotation
		JOINT RightUpLeg
		{
			OFFSET -3.52197 -3.41223 0.04002
			CHANNELS 3 Zrotation Yrotation Xrotation
			JOINT RightLeg
			{
				OFFSET 0.00006 -17.42390 1.60435
				CHANNELS 3 Zrotation Yrotation Xrotation
				JOINT RightFoot
				{
					OFFSET 0.06153 -16.50078 -1.63901
					CHANNELS 3 Zrotation Yrotation Xrotation
					JOINT RightToes
					{
						OFFSET 0.00298 -1.73825 3.34613
						CHANNELS 3 Zrotation Yrotation Xrotation
						End Site
						{
							OFFSET 0.00480 -0.05416 3.85043
						}
					}
				}
			}
		}
	}
	JOINT SpineDummy
	{
		OFFSET 0 0 0
		CHANNELS 3 Zrotation Yrotation Xrotation
		JOINT Spine
		{
			OFFSET 0.00000 4.68130 0.00000
			CHANNELS 3 Zrotation Yrotation Xrotation
			JOINT Spine1
			{
				OFFSET -0.00000 10.10138 0.05002
				CHANNELS 3 Zrotation Yrotation Xrotation
				JOINT HEadDummy
				{
					OFFSET 0 0 0
					CHANNELS 3 Zrotation Yrotation Xrotation
					JOINT Head
					{
						OFFSET -0.00000 3.43865 0.00438
						CHANNELS 3 Zrotation Yrotation Xrotation
						End Site
						{
							OFFSET -0.11417 5.02924 0.98962
						}
					}
				}
				JOINT LeftShoulder1Dummy
				{
					OFFSET 0 0 0
					CHANNELS 3 Zrotation Yrotation Xrotation
					JOINT LeftShoulder1
					{
						OFFSET 3.53937 -0.14262 -0.08662
						CHANNELS 3 Zrotation Yrotation Xrotation
						JOINT LeftArm
						{
							OFFSET 4.04833 -0.00133 0.12681
							CHANNELS 3 Zrotation Yrotation Xrotation
							JOINT LeftForeArm
							{
								OFFSET 10.33880 -0.01036 -0.55515
								CHANNELS 3 Zrotation Yrotation Xrotation
								JOINT LeftHand
								{
									OFFSET 8.69677 0.07543 0.40060
									CHANNELS 3 Zrotation Yrotation Xrotation
									End Site
									{
										OFFSET 5.28377 -0.21905 0.59205
									}
								}
							}
						}
					}
				}
				JOINT RightShoulderDummy
				{
					OFFSET 0 0 0
					CHANNELS 3 Zrotation Yrotation Xrotation
					JOINT RightShoulder
					{
						OFFSET -3.53937 -0.14262 -0.08660
						CHANNELS 3 Zrotation Yrotation Xrotation
						JOINT RightArm
						{
							OFFSET -4.04833 -0.00133 0.12683
							CHANNELS 3 Zrotation Yrotation Xrotation
							JOINT RightForeArm
							{
								OFFSET -10.37987 -0.01039 -0.55511
								CHANNELS 3 Zrotation Yrotation Xrotation
								JOINT RightHand
								{
									OFFSET -8.67398 0.07538 0.40058
									CHANNELS 3 Zrotation Yrotation Xrotation
									End Site
									{
										OFFSET -5.24810 -0.21916 0.59204
									}
								}
							}
						}
					}
				}
			}
		}
	}
	JOINT LeftUpLegDummy
	{
		OFFSET 0 0 0
		CHANNELS 3 Zrotation Yrotation Xrotation
		JOINT LeftUpLeg
		{
			OFFSET 3.52197 -3.41223 0.04002
			CHANNELS 3 Zrotation Yrotation Xrotation
			JOINT LeftLeg
			{
				OFFSET -0.00012 -17.42399 1.60337
				CHANNELS 3 Zrotation Yrotation Xrotation
				JOINT LeftFoot
				{
					OFFSET -0.09972 -16.50070 -1.63802
					CHANNELS 3 Zrotation Yrotation Xrotation
					JOINT LeftToes
					{
						OFFSET -0.01575 -1.73823 3.34611
						CHANNELS 3 Zrotation Yrotation Xrotation
						End Site
						{
							OFFSET 0.03150 -0.01868 3.85031
						}
					}
				}
			}
		}
	}
}
MOTION
Frames: 14
Frame Time: 0.033333
29.1934 39.9297 68.4228 -178.0670 -2.7511 177.1750 0.0000 0.0000 0.0000 0.0450 -2.1867 2.7335 -1.2589 -2.5722 2.9802 0.6565 -0.0543 -2.8716 0.0000 -0.0000 0.0000 0.0000 0.0000 0.0000 1.4997 0.1614 3.0050 3.0151 -0.4818 1.3960 -0.0000 0.0000 -0.0000 -0.3475 -1.3960 -3.8167 -0.0000 0.0000 -0.0000 -34.7056 -2.8907 2.6053 -42.7071 -15.9516 -19.3726 -9.5251 5.1092 49.1169 14.4928 -4.2889 -1.1762 -0.0000 0.0000 -0.0000 34.2180 5.0926 3.4583 40.7941 10.1357 -12.9075 11.5652 2.2056 24.0463 -12.9389 -0.1817 -0.5798 0.0000 0.0000 0.0000 2.8688 2.8838 1.4617 0.0733 1.9313 6.3140 2.4615 -0.0911 -5.7851 0.0000 0.0000 -0.0000
29.1889 39.9297 68.4674 -178.0550 -2.5863 177.2460 0.0000 0.0000 0.0000 0.0403 -2.1867 2.5840 -1.2186 -2.4091 2.9458 0.7215 -0.0587 -2.7862 0.0000 -0.0000 0.0000 0.0000 0.0000 0.0000 1.3045 0.1254 3.0554 3.2895 -0.5645 1.2667 -0.0000 0.0000 -0.0000 0.1748 -1.6564 -3.6708 -0.0000 0.0000 -0.0000 -34.6074 -2.8598 2.5864 -43.1743 -16.0775 -18.9592 -9.7223 5.1238 48.5401 14.3769 -4.2277 -1.1592 -0.0000 0.0000 -0.0000 34.2483 5.1016 3.4646 40.5164 9.9967 -12.8999 11.5779 2.3641 24.0712 -12.3428 1.0605 -0.6758 0.0000 0.0000 0.0000 2.8617 2.8834 1.2998 0.1038 2.1078 6.3861 2.5053 -0.0939 -5.7768 0.0000 0.0000 -0.0000
29.1911 39.9290 68.5474 -178.0750 -2.3008 177.3030 0.0000 0.0000 0.0000 0.0091 -2.1809 2.3296 -1.1702 -2.1072 3.0224 0.7840 -0.0630 -2.7064 0.0000 -0.0000 0.0000 0.0000 0.0000 0.0000 0.8709 0.0885 3.1899 3.7023 -0.6692 1.1654 -0.0000 0.0000 -0.0000 1.2762 -2.2278 -3.5314 -0.0000 0.0000 -0.0000 -34.1263 -2.8110 2.5358 -44.2636 -16.4081 -17.8370 -10.2314 5.1445 47.6143 14.2815 -4.1564 -1.1430 -0.0000 0.0000 -0.0000 34.4619 5.1241 3.4923 39.8986 9.7897 -12.9945 11.6073 2.4128 24.0148 -11.6995 2.3139 -0.7587 0.0000 0.0000 0.0000 2.7995 2.8316 1.0997 0.2085 2.4526 6.4884 2.5438 -0.0964 -5.7582 0.0000 0.0000 -0.0000
29.2049 39.9255 68.6245 -178.1160 -1.9809 177.2810 0.0000 0.0000 0.0000 0.0031 -2.1298 2.1097 -1.1788 -1.8114 3.2059 0.8000 -0.0641 -2.6950 0.0000 -0.0000 0.0000 0.0000 0.0000 0.0000 0.5093 0.0239 3.3823 3.8936 -0.7640 1.1752 -0.0000 0.0000 -0.0000 2.4507 -2.7382 -3.4968 -0.0000 0.0000 -0.0000 -33.6350 -2.8047 2.5019 -45.1994 -16.6078 -16.3104 -10.9564 5.1599 46.7609 14.2017 -4.1810 -1.1391 -0.0000 0.0000 -0.0000 34.8097 5.1625 3.5385 39.2811 9.6244 -13.2529 11.6055 2.1539 23.8786 -11.7001 2.3079 -0.7570 0.0000 0.0000 0.0000 2.7250 2.7625 1.0001 0.3481 2.8403 6.5856 2.5688 -0.0980 -5.7599 0.0000 0.0000 -0.0000
29.2232 39.9189 68.6893 -178.1000 -1.6579 177.2770 0.0000 0.0000 0.0000 0.1023 -1.9868 1.8952 -1.2466 -1.6316 3.3652 0.7990 -0.0640 -2.6922 0.0000 -0.0000 0.0000 0.0000 0.0000 0.0000 0.4583 -0.1100 3.4904 3.7936 -0.8840 1.2638 -0.0000 0.0000 -0.0000 3.3297 -2.9543 -3.5258 -0.0000 0.0000 -0.0000 -33.4983 -2.8606 2.5153 -45.5186 -16.5955 -14.9999 -11.6007 5.1669 46.2137 14.0580 -4.2929 -1.1399 -0.0000 0.0000 -0.0000 35.0869 5.2048 3.5802 38.9586 9.5266 -13.7029 11.5152 1.5844 23.8788 -12.0160 1.6905 -0.7192 0.0000 0.0000 0.0000 2.7318 2.7434 0.8726 0.4684 3.1796 6.7381 2.6076 -0.1005 -5.8130 0.0000 0.0000 -0.0000
29.2385 39.9133 68.7505 -178.0150 -1.3512 177.3810 0.0000 0.0000 0.0000 0.2735 -1.8012 1.6053 -1.3035 -1.5271 3.4503 0.7951 -0.0639 -2.6414 0.0000 -0.0000 0.0000 0.0000 0.0000 0.0000 0.5750 -0.2629 3.4736 3.6911 -1.0265 1.3143 -0.0000 0.0000 -0.0000 3.8686 -2.9999 -3.6110 -0.0000 0.0000 -0.0000 -33.6437 -2.9145 2.5460 -45.5003 -16.6640 -14.2712 -11.9439 5.1672 46.0383 13.9407 -4.3827 -1.1399 -0.0000 0.0000 -0.0000 35.1210 5.2205 3.5897 38.9735 9.3919 -14.2911 11.3528 0.8249 24.1484 -12.0687 1.5576 -0.7094 0.0000 0.0000 0.0000 2.8089 2.7501 0.6025 0.5860 3.4720 6.9434 2.6270 -0.1018 -5.8826 0.0000 0.0000 -0.0000
29.2530 39.9112 68.8075 -177.9410 -1.0790 177.5230 0.0000 0.0000 0.0000 0.3930 -1.6806 1.2976 -1.2888 -1.3603 3.5209 0.7840 -0.0634 -2.5782 0.0000 -0.0000 0.0000 0.0000 0.0000 0.0000 0.5937 -0.3577 3.5066 3.8047 -1.1434 1.1891 -0.0000 0.0000 -0.0000 4.1582 -3.0428 -3.7678 -0.0000 0.0000 -0.0000 -33.8697 -2.9042 2.5565 -45.4982 -16.9488 -14.0379 -12.0220 5.1645 46.0977 13.9526 -4.3822 -1.1372 -0.0000 0.0000 -0.0000 34.9930 5.2081 3.5733 39.1215 9.0297 -14.8230 11.2168 0.0891 24.4953 -11.9335 1.8377 -0.7281 0.0000 0.0000 0.0000 2.8584 2.7178 0.3182 0.7308 3.7590 7.0952 2.5795 -0.0987 -5.9020 0.0000 0.0000 -0.0000
29.2725 39.9105 68.8505 -177.9410 -0.8508 177.6000 0.0000 0.0000 0.0000 0.4088 -1.6515 1.0747 -1.2259 -1.1060 3.6352 0.7976 -0.0642 -2.5878 0.0000 -0.0000 0.0000 0.0000 0.0000 0.0000 0.5260 -0.3985 3.6757 3.9569 -1.2041 0.9273 -0.0000 0.0000 -0.0000 4.2210 -3.0374 -3.9297 -0.0000 0.0000 -0.0000 -34.0974 -2.8674 2.5565 -45.4863 -17.2692 -14.1327 -11.9346 5.1594 46.3242 13.9652 -4.3836 -1.1364 -0.0000 0.0000 -0.0000 34.9759 5.2064 3.5711 39.1633 8.3744 -15.1099 11.1845 -0.4674 24.6767 -11.9624 1.8058 -0.7268 0.0000 0.0000 0.0000 2.8458 2.6631 0.1743 0.8576 4.0260 7.1382 2.5037 -0.0938 -5.8654 0.0000 0.0000 -0.0000
29.2979 39.9104 68.8772 -177.9940 -0.6328 177.6570 0.0000 0.0000 0.0000 0.3811 -1.6378 0.8843 -1.1827 -0.8579 3.7946 0.8650 -0.0683 -2.6965 0.0000 -0.0000 0.0000 0.0000 0.0000 0.0000 0.5499 -0.4133 3.7694 3.8732 -1.1973 0.7687 -0.0000 0.0000 -0.0000 4.0801 -2.9174 -4.0028 -0.0000 0.0000 -0.0000 -34.2087 -2.8808 2.5691 -45.4333 -17.5487 -14.4883 -11.7018 5.1476 46.8586 13.8233 -4.5059 -1.1442 -0.0000 0.0000 -0.0000 35.1643 5.2343 3.5992 39.1023 7.5775 -15.2231 11.2084 -0.8976 24.8278 -12.0648 1.4802 -0.7018 0.0000 0.0000 0.0000 2.8164 2.6445 0.1053 0.9129 4.2607 7.1292 2.4663 -0.0914 -5.8223 0.0000 0.0000 -0.0000
29.3260 39.9108 68.8937 -178.0600 -0.3613 177.7780 0.0000 0.0000 0.0000 0.3734 -1.5836 0.6319 -1.1789 -0.6494 3.9554 0.9234 -0.0716 -2.8262 0.0000 -0.0000 0.0000 0.0000 0.0000 0.0000 0.6698 -0.3722 3.6127 3.6052 -1.1081 0.8430 -0.0000 0.0000 -0.0000 3.8686 -2.7496 -4.0243 -0.0000 0.0000 -0.0000 -34.0708 -2.9297 2.5797 -45.5066 -17.8979 -14.9396 -11.3894 5.1282 47.6846 13.7062 -4.6766 -1.1528 -0.0000 0.0000 -0.0000 35.3219 5.2539 3.6214 39.1859 6.8347 -15.4406 11.1646 -1.3679 25.2717 -11.9948 1.4228 -0.6921 0.0000 0.0000 0.0000 2.7975 2.6564 -0.0034 0.9326 4.5222 7.1169 2.4479 -0.0903 -5.7944 0.0000 0.0000 -0.0000
29.3545 39.9116 68.9035 -178.1070 -0.0526 177.9050 0.0000 0.0000 0.0000 0.3943 -1.5250 0.4050 -1.1694 -0.4428 4.0397 0.8657 -0.0678 -2.8587 0.0000 -0.0000 0.0000 0.0000 0.0000 0.0000 0.7520 -0.2810 3.3939 3.4180 -0.9845 0.9775 -0.0000 0.0000 -0.0000 3.7482 -2.5555 -4.1475 -0.0000 0.0000 -0.0000 -33.8267 -2.9256 2.5622 -45.7003 -18.2200 -15.2174 -11.1816 5.1113 48.3672 13.9027 -4.6953 -1.1721 -0.0000 0.0000 -0.0000 35.2509 5.2349 3.6072 39.5188 6.2070 -15.8764 11.0157 -1.9235 25.9632 -11.8465 1.6619 -0.7060 0.0000 0.0000 0.0000 2.7939 2.6677 -0.0918 0.9688 4.8147 7.0822 2.4022 -0.0873 -5.7620 0.0000 0.0000 -0.0000
29.3838 39.9136 68.9085 -178.1170 0.1582 177.9200 0.0000 0.0000 0.0000 0.4353 -1.5172 0.3688 -1.1215 -0.2779 3.9974 0.6856 -0.0565 -2.7594 0.0000 -0.0000 0.0000 0.0000 0.0000 0.0000 0.7634 -0.2563 3.3870 3.3963 -0.9548 0.9707 -0.0000 0.0000 -0.0000 3.7471 -2.2570 -4.4498 -0.0000 0.0000 -0.0000 -33.7706 -2.8474 2.5275 -45.7544 -18.2106 -15.2446 -11.1818 5.1069 48.5173 14.2931 -4.5014 -1.1839 -0.0000 0.0000 -0.0000 35.1356 5.2182 3.5901 39.8173 5.6735 -16.3303 10.8628 -2.4701 26.4733 -11.7797 1.7526 -0.7104 0.0000 0.0000 0.0000 2.8331 2.6987 -0.0533 0.9917 4.9965 7.0152 2.3640 -0.0849 -5.7177 0.0000 0.0000 -0.0000
29.4179 39.9161 68.9120 -178.1050 0.1971 177.8310 0.0000 0.0000 0.0000 0.4877 -1.5455 0.4976 -1.0665 -0.2319 3.8883 0.4899 -0.0443 -2.6219 0.0000 -0.0000 0.0000 0.0000 0.0000 0.0000 0.7366 -0.3568 3.5328 3.4305 -1.0615 0.8922 -0.0000 0.0000 -0.0000 3.7290 -1.9081 -4.8426 -0.0000 0.0000 -0.0000 -33.8981 -2.7709 2.5052 -45.5984 -17.8355 -15.1976 -11.2735 5.1114 48.3216 14.4712 -4.2397 -1.1686 -0.0000 0.0000 -0.0000 35.2392 5.2508 3.6128 39.8134 5.2608 -16.5996 10.8014 -2.9511 26.5880 -11.7354 1.5743 -0.6910 0.0000 0.0000 0.0000 2.9100 2.7549 0.0798 0.9719 4.9973 6.9322 2.3699 -0.0852 -5.6708 0.0000 0.0000 -0.0000
29.4602 39.9183 68.9134 -178.1280 0.1977 177.7430 0.0000 0.0000 0.0000 0.5278 -1.5555 0.6158 -1.0524 -0.2380 3.8260 0.3582 -0.0360 -2.5565 0.0000 -0.0000 0.0000 0.0000 0.0000 0.0000 0.6152 -0.4475 3.5784 3.5108 -1.1691 0.9245 -0.0000 0.0000 -0.0000 3.5441 -1.6953 -5.1891 -0.0000 0.0000 -0.0000 -33.9805 -2.7404 2.4982 -45.4339 -17.4165 -15.2179 -11.3113 5.1131 48.2451 14.3282 -4.0389 -1.1332 -0.0000 0.0000 -0.0000 35.4097 5.2928 3.6453 39.7189 5.0079 -16.7463 10.7882 -3.3520 26.5734 -11.6682 1.3862 -0.6694 0.0000 0.0000 0.0000 2.9431 2.7609 0.2257 0.9864 5.0049 6.8153 2.3456 -0.0837 -5.6102 0.0000 0.0000 -0.0000
